<svg version="1.1" id="Layer_1" xmlns:x="ns_extend;" xmlns:i="ns_ai;" xmlns:graph="ns_graphs;" xmlns="http://www.w3.org/2000/svg" xmlns:xlink="http://www.w3.org/1999/xlink" x="0px" y="0px" viewBox="0 0 40 40" style="enable-background:new 0 0 40 40;" xml:space="preserve">
 <style type="text/css">
  .st0{fill-rule:evenodd;clip-rule:evenodd;fill:#FF6154;}
	.st1{fill-rule:evenodd;clip-rule:evenodd;fill:#FFFFFF;}
 </style>
 <metadata>
  <sfw xmlns="ns_sfw;">
   <slices>
   </slices>
   <sliceSourceBounds bottomLeftOrigin="true" height="40" width="40" x="180.5" y="-220.2">
   </sliceSourceBounds>
  </sfw>
 </metadata>
 <g>
  <path class="st0" d="M40,20c0,11-9,20-20,20S0,31,0,20S9,0,20,0S40,9,40,20">
  </path>
  <path class="st1" d="M22.7,20H17v-6h5.7c1.7,0,3,1.3,3,3S24.3,20,22.7,20 M22.7,10H13v20h4v-6h5.7c3.9,0,7-3.1,7-7S26.5,10,22.7,10
		L22.7,10">
  </path>
 </g>
</svg>