<svg width="1126" height="636" viewBox="0 0 1126 636" fill="none" xmlns="http://www.w3.org/2000/svg">
<path d="M20 126.001L583 197.001L633 395.001L327 376.501L28 272.501L20 126.001Z" fill="url(#paint0_linear_10121_30)"/>
<path d="M260.032 0.3C257.899 0.566667 251.499 1.5 246.032 2.3C226.165 5.1 210.299 10.1666 189.499 20.4333C153.765 38.0333 118.032 73.2333 100.699 107.5L96.8321 114.967L87.0988 113.233C81.7654 112.167 65.6321 111.1 51.3654 110.567C26.1654 109.9 25.0988 109.9 18.8321 112.833C11.3654 116.433 6.03208 123.1 2.43208 133.233C-1.43458 144.433 -0.634582 175.1 4.43209 216.833C9.49875 257.233 10.6988 263.5 14.8321 271.767C17.8988 277.767 28.2988 287.5 34.9654 290.567C37.6321 291.767 37.3654 292.3 28.9654 300.7C13.8988 315.633 6.03208 334.167 6.03208 355.633C6.03208 393.633 35.4988 420.967 89.0988 432.7C98.4321 434.7 101.765 436.167 105.765 439.767C113.632 446.833 131.232 459.9 143.765 468.033C150.165 472.167 155.365 475.767 155.365 476.033C155.365 476.3 152.965 480.033 150.165 484.3C128.965 516.033 119.899 549.633 127.232 568.967C130.832 578.567 137.232 585.9 146.165 590.833C152.299 594.167 155.232 594.833 165.365 595.233C186.032 596.167 208.032 589.233 230.165 574.7C241.632 567.233 264.565 545.367 272.165 534.833C274.965 530.833 278.165 527.633 279.232 527.5C280.165 527.5 287.099 529.233 294.565 531.367C318.699 538.433 340.699 543.633 379.099 551.5C409.632 557.767 417.499 559.767 420.565 562.3C422.699 564.033 430.299 570.433 437.499 576.567C479.899 612.3 536.699 637.9 567.499 635.1C578.565 634.167 587.765 629.633 595.232 621.367C604.032 611.767 606.699 603.9 606.699 587.233V574.3L611.365 573.633C660.299 566.3 696.299 556.833 734.032 541.233C768.299 527.1 814.165 499.633 845.365 474.7C865.499 458.567 898.965 424.967 915.232 404.433C936.965 376.967 951.232 354.567 966.165 324.7L975.232 306.7L984.965 305.1C1021.63 299.367 1058.43 280.567 1084.7 254.3C1122.57 216.433 1137.9 163.1 1115.37 147.767C1108.7 143.367 1101.77 143.9 1085.1 150.433C1072.3 155.367 1069.37 156.033 1059.37 156.033C1051.5 156.167 1044.17 155.1 1035.37 152.833C1018.03 148.433 989.366 148.3 973.499 152.7C967.632 154.167 962.432 155.1 962.032 154.567C943.765 131.633 930.032 122.7 900.032 114.167C880.299 108.433 874.165 104.833 862.965 92.5667C852.032 80.3001 846.832 76.8333 840.165 76.8333C827.899 76.8333 818.965 87.7667 813.232 109.5C809.499 123.767 809.899 152.433 813.899 167.9C821.765 198.3 838.432 225.233 866.965 253.767L880.565 267.367L873.099 274.167C849.765 295.5 823.099 306.567 794.699 306.567C744.699 306.567 704.699 278.7 615.765 182.167C582.165 145.633 553.765 117.9 530.699 98.8334C452.565 34.4334 373.232 2.3 287.365 0.3C274.565 -0.1 262.299 -0.1 260.032 0.3ZM58.2988 132.833C94.0321 135.367 124.832 143.9 161.099 160.967C176.965 168.567 186.165 171.9 204.032 176.567L226.699 182.7L260.699 182.3C296.699 181.9 324.565 184.167 358.165 190.3C376.432 193.5 415.899 203.233 433.232 208.833C444.565 212.567 446.432 213.5 451.899 219.633C457.632 225.9 462.299 228.567 516.432 255.5C548.432 271.367 576.699 286.167 579.099 288.167C584.965 293.1 591.099 305.767 597.899 326.433C600.832 335.767 603.365 344.033 603.365 344.7C603.365 347.233 599.099 350.167 595.232 350.167C591.632 350.167 590.832 349.1 582.832 333.1L574.299 316.167L562.565 311.767C527.632 298.967 453.499 280.833 435.765 280.833C423.632 280.833 418.832 284.3 410.565 299.233C402.432 313.767 382.699 342.567 376.832 348.433C366.299 358.967 355.232 361.9 335.232 359.367C301.899 355.367 255.765 339.633 242.699 327.767C230.299 316.7 225.232 299.367 222.032 257.5C221.365 247.233 220.299 236.3 219.899 233.1C218.299 222.167 210.032 216.433 193.632 214.7C179.365 213.233 176.165 216.033 162.032 242.167C150.299 263.767 142.965 274.7 134.832 282.833C125.632 292.033 119.099 293.633 102.832 290.833C78.9654 286.7 47.6321 274.167 38.0321 264.833C31.8988 259.1 30.9654 255.367 26.6988 217.5C21.6321 172.7 20.2988 151.367 21.8988 145.233C23.8988 138.167 27.8988 133.1 32.4321 132.433C38.6988 131.5 39.6321 131.5 58.2988 132.833ZM256.699 442.7C274.299 442.967 283.099 443.767 287.365 445.233C290.699 446.3 305.099 452.967 319.365 459.9C333.632 466.7 350.965 474.7 357.632 477.5L370.032 482.7L372.165 489.5C375.365 499.233 382.299 513.767 387.765 522.167C390.432 526.167 392.032 529.767 391.232 529.9C388.165 530.967 336.832 519.1 303.099 509.633C250.299 494.7 191.365 470.033 158.565 449.233L146.432 441.5L189.232 441.767C212.832 442.033 243.099 442.433 256.699 442.7ZM783.365 489.367C783.365 490.833 746.699 509.9 731.632 516.433C692.299 533.5 646.432 545.9 604.965 550.833C598.165 551.633 597.899 551.5 595.632 547.367C594.432 545.1 590.565 538.433 587.099 532.7C583.632 526.833 581.232 522.167 581.765 522.167C598.699 522.033 660.432 516.433 685.499 512.833C715.232 508.433 754.432 499.233 775.365 491.633C779.365 490.167 782.832 488.967 783.099 488.967C783.232 488.833 783.365 489.1 783.365 489.367Z" fill="#02001A"/>
<path d="M47.7654 154.7C42.0321 157.367 39.2321 162.033 37.2321 172.567C32.5654 196.167 38.0321 242.033 46.4321 251.367C48.0321 253.1 53.0987 256.3 57.7654 258.433C68.5654 263.367 95.2321 271.1 105.499 272.167C112.432 272.967 113.899 272.7 118.032 269.9C127.365 263.633 139.765 243.367 148.299 220.833C152.032 210.833 153.232 205.633 153.765 196.033C154.565 179.9 153.099 177.233 140.432 170.967C114.965 158.567 60.2987 148.967 47.7654 154.7ZM86.0321 172.967C87.8987 176.433 87.4987 176.967 71.8987 189.633C61.4987 198.033 58.8321 199.633 56.0321 198.967C53.4987 198.3 52.6987 197.233 52.6987 194.3C52.6987 191.1 54.6987 188.967 65.7654 180.433C79.2321 169.9 83.6321 168.167 86.0321 172.967ZM115.499 179.5C116.832 180.3 118.032 182.3 118.032 184.167C118.032 186.567 113.499 190.967 97.8987 204.033C86.6987 213.233 76.6987 220.833 75.4987 220.833C72.6987 220.833 70.0321 218.3 70.0321 215.5C70.0321 212.567 79.0987 204.3 105.765 183.233C112.965 177.5 112.165 177.767 115.499 179.5Z" fill="#02001A"/>
<path d="M262.032 205.5C256.565 207.9 251.765 214.3 248.565 223.9C245.365 232.833 245.099 265.9 248.032 282.3C253.099 311.367 255.232 313.9 281.365 322.567C314.565 333.5 346.165 338.3 355.232 333.633C366.965 327.5 388.032 294.3 397.499 266.833C402.299 253.1 402.832 237.5 398.699 232.833C393.632 227.1 372.032 219.1 342.699 212.3C310.965 204.833 271.099 201.5 262.032 205.5ZM318.299 221.767C319.632 222.967 320.699 224.967 320.699 226.167C320.699 227.9 301.632 244.7 273.899 267.367C270.565 270.033 269.499 270.3 266.699 269.1C264.432 268.033 263.365 266.433 263.365 264.3C263.365 261.767 268.565 256.833 288.165 240.3C301.899 228.833 313.765 219.5 314.432 219.5C315.232 219.5 316.965 220.433 318.299 221.767ZM347.099 238.433C350.699 242.033 348.165 245.1 329.099 261.1C305.365 281.1 303.632 282.3 299.899 280.833C294.032 278.567 295.099 274.7 303.765 267.1C336.965 238.3 342.965 234.3 347.099 238.433Z" fill="#02001A"/>
<defs>
<linearGradient id="paint0_linear_10121_30" x1="23.8765" y1="24.7983" x2="1077.7" y2="295.248" gradientUnits="userSpaceOnUse">
<stop stop-color="#EA3A77"/>
<stop offset="0.471154" stop-color="#D957C1"/>
</linearGradient>
</defs>
</svg>
