<svg width="612" height="104" viewBox="0 0 612 104" fill="none" xmlns="http://www.w3.org/2000/svg">
<path d="M3.26859 20.6263L95.2794 32.249L103.451 64.6615L53.4415 61.6331L4.57603 44.6083L3.26859 20.6263Z" fill="url(#paint0_linear_10166_68)"/>
<path d="M42.4969 0.0491099C42.1483 0.0927632 41.1023 0.24555 40.2089 0.37651C36.9621 0.834869 34.369 1.66428 30.9697 3.34493C25.1298 6.22604 19.2899 11.9883 16.4571 17.5977L15.8252 18.82L14.2345 18.5363C13.3629 18.3617 10.7262 18.1871 8.39463 18.0998C4.2762 17.9906 4.10188 17.9906 3.07772 18.4708C1.85744 19.0601 0.985821 20.1515 0.397474 21.8103C-0.234453 23.6437 -0.103709 28.6638 0.724334 35.4956C1.55238 42.1091 1.74849 43.1349 2.424 44.4882C2.92518 45.4703 4.62485 47.0637 5.71438 47.5657C6.15019 47.7621 6.10661 47.8495 4.7338 49.2245C2.27147 51.6691 0.985821 54.703 0.985821 58.2171C0.985821 64.4377 5.80155 68.9122 14.5614 70.8329C16.0867 71.1603 16.6315 71.4004 17.2852 71.9897C18.5708 73.1465 21.4472 75.2855 23.4955 76.617C24.5415 77.2936 25.3913 77.8829 25.3913 77.9266C25.3913 77.9702 24.9991 78.5814 24.5415 79.2798C21.0768 84.4746 19.595 89.9749 20.7935 93.1397C21.3818 94.7113 22.4278 95.9117 23.8877 96.7193C24.8901 97.265 25.3695 97.3741 27.0256 97.4396C30.4031 97.5924 33.9986 96.4574 37.6158 94.0783C39.4898 92.856 43.2378 89.2764 44.4799 87.5521C44.9375 86.8973 45.4604 86.3735 45.6348 86.3516C45.7873 86.3516 46.9204 86.6354 48.1407 86.9846C52.0848 88.1414 55.6802 88.9927 61.9559 90.2804C66.946 91.3063 68.2316 91.6337 68.7328 92.0484C69.0815 92.3321 70.3235 93.3798 71.5002 94.3839C78.4296 100.233 87.7124 104.424 92.746 103.966C94.5547 103.813 96.0582 103.071 97.2785 101.718C98.7167 100.146 99.1525 98.8583 99.1525 96.13V94.0128L99.9152 93.9037C107.912 92.7032 113.796 91.1535 119.963 88.5998C125.563 86.2862 133.059 81.7899 138.158 77.7083C141.448 75.0673 146.917 69.567 149.576 66.2057C153.128 61.7094 155.459 58.0425 157.9 53.1533L159.382 50.2067L160.972 49.9448C166.965 49.0063 172.979 45.9287 177.272 41.6289C183.46 35.4301 185.966 26.6994 182.284 24.1894C181.194 23.4691 180.061 23.5564 177.337 24.6259C175.245 25.4335 174.766 25.5426 173.132 25.5426C171.846 25.5645 170.647 25.3898 169.209 25.0188C166.376 24.2985 161.692 24.2767 159.098 24.997C158.14 25.2371 157.29 25.3898 157.224 25.3025C154.239 21.5484 151.995 20.086 147.092 18.6891C143.867 17.7505 142.864 17.1612 141.034 15.1532C139.247 13.1451 138.397 12.5776 137.308 12.5776C135.303 12.5776 133.843 14.3674 132.906 17.9251C132.296 20.2606 132.361 24.9533 133.015 27.4852C134.301 32.4617 137.025 36.8707 141.688 41.5416L143.91 43.7679L142.69 44.881C138.877 48.3733 134.519 50.1849 129.877 50.1849C121.706 50.1849 115.169 45.6231 100.634 29.8207C95.143 23.8402 90.5016 19.3002 86.7318 16.179C73.9626 5.63674 60.9971 0.37651 46.964 0.0491099C44.8721 -0.01637 42.8674 -0.01637 42.4969 0.0491099ZM9.52774 21.7448C15.3676 22.1595 20.4012 23.5564 26.3283 26.3502C28.9214 27.5943 30.4249 28.14 33.3449 28.9039L37.0493 29.908L42.6059 29.8425C48.4893 29.777 53.0436 30.1481 58.5348 31.1521C61.5201 31.6759 67.9701 33.2693 70.8029 34.186C72.6551 34.7971 72.9602 34.9499 73.8536 35.9539C74.7906 36.9798 75.5533 37.4163 84.4003 41.8253C89.63 44.4227 94.2496 46.8454 94.6418 47.1728C95.6006 47.9804 96.603 50.0539 97.7143 53.4371C98.1937 54.9649 98.6077 56.3182 98.6077 56.4273C98.6077 56.842 97.9104 57.3222 97.2785 57.3222C96.6901 57.3222 96.5594 57.1476 95.252 54.5284L93.8574 51.7564L91.9398 51.0361C86.2307 48.9408 74.1151 45.9724 71.2169 45.9724C69.234 45.9724 68.4495 46.5399 67.0985 48.9844C65.7693 51.3635 62.5443 56.0781 61.5855 57.0385C59.864 58.7628 58.0554 59.243 54.7868 58.8283C49.3392 58.1735 41.7996 55.5979 39.6641 53.6553C37.6376 51.8437 36.8096 49.0063 36.2866 42.1527C36.1776 40.472 36.0033 38.6823 35.9379 38.1584C35.6765 36.3686 34.3254 35.4301 31.6452 35.1464C29.3136 34.9063 28.7906 35.3646 26.4808 39.6426C24.5633 43.1786 23.3648 44.9683 22.0355 46.2998C20.532 47.8058 19.4643 48.0677 16.8058 47.6094C12.9053 46.9327 7.78449 44.881 6.21557 43.3532C5.2132 42.4146 5.06066 41.8035 4.36336 35.6047C3.53532 28.271 3.31742 24.7787 3.5789 23.7747C3.90576 22.6179 4.55948 21.7884 5.30036 21.6793C6.32452 21.5265 6.47705 21.5265 9.52774 21.7448ZM41.9522 72.4699C44.8285 72.5136 46.2667 72.6445 46.964 72.8846C47.5088 73.0592 49.8621 74.1506 52.1937 75.2855C54.5253 76.3987 57.3581 77.7083 58.4476 78.1667L60.4742 79.0179L60.8228 80.1311C61.3458 81.7244 62.4789 84.1035 63.3723 85.4786C63.8081 86.1334 64.0696 86.7227 63.9389 86.7445C63.4377 86.9191 55.0483 84.9766 49.5353 83.4269C40.9062 80.9823 31.2748 76.9444 25.9143 73.5394L23.9313 72.2735L30.9261 72.3171C34.783 72.3608 39.7295 72.4263 41.9522 72.4699ZM128.025 80.1092C128.025 80.3493 122.033 83.4705 119.57 84.54C113.142 87.3338 105.646 89.3637 98.8692 90.1713C97.7579 90.3023 97.7143 90.2804 97.3439 89.6038C97.1478 89.2328 96.5158 88.1414 95.9493 87.2029C95.3827 86.2425 94.9905 85.4786 95.0776 85.4786C97.845 85.4567 107.934 84.54 112.031 83.9507C116.89 83.2304 123.296 81.7244 126.718 80.4803C127.371 80.2402 127.938 80.0437 127.981 80.0437C128.003 80.0219 128.025 80.0656 128.025 80.1092Z" fill="#02001A"/>
<path d="M7.80628 25.3244C6.86928 25.7609 6.41168 26.5248 6.08482 28.2491C5.32215 32.1125 6.21556 39.6208 7.58837 41.1487C7.84986 41.4324 8.6779 41.9563 9.44057 42.3055C11.2056 43.1131 15.5637 44.379 17.2416 44.5536C18.3747 44.6846 18.6144 44.6409 19.2899 44.1826C20.8153 43.1567 22.8418 39.8391 24.2364 36.1504C24.8465 34.5134 25.0426 33.6621 25.1298 32.0906C25.2605 29.4496 25.0209 29.0131 22.9507 27.9872C18.7887 25.9573 9.85459 24.3858 7.80628 25.3244ZM14.0602 28.3146C14.3652 28.8821 14.2999 28.9694 11.7504 31.0429C10.0507 32.418 9.6149 32.6799 9.1573 32.5708C8.74327 32.4617 8.61253 32.2871 8.61253 31.8069C8.61253 31.283 8.93939 30.9338 10.748 29.5369C12.9489 27.8126 13.6679 27.5289 14.0602 28.3146ZM18.8759 29.3841C19.0938 29.5151 19.2899 29.8425 19.2899 30.1481C19.2899 30.5409 18.549 31.2612 15.9995 33.4002C14.1691 34.9063 12.5348 36.1504 12.3387 36.1504C11.8811 36.1504 11.4453 35.7357 11.4453 35.2773C11.4453 34.7971 12.9271 33.4439 17.2852 29.9953C18.4619 29.0567 18.3311 29.1004 18.8759 29.3841Z" fill="#02001A"/>
<path d="M42.8238 33.6403C41.9304 34.0332 41.1459 35.0809 40.6229 36.6524C40.1 38.1148 40.0564 43.5278 40.5358 46.2125C41.3638 50.9707 41.7125 51.3854 45.9834 52.8041C51.4093 54.5939 56.5737 55.3797 58.0554 54.6157C59.973 53.6117 63.4159 48.1769 64.963 43.6806C65.7475 41.4324 65.8347 38.8787 65.1591 38.1148C64.3311 37.1762 60.801 35.8666 56.0071 34.7535C50.8209 33.5312 44.3055 32.9855 42.8238 33.6403ZM52.0194 36.3032C52.2373 36.4996 52.4116 36.827 52.4116 37.0235C52.4116 37.3072 49.2956 40.0574 44.7631 43.7679C44.2184 44.2044 44.0441 44.2481 43.5865 44.0516C43.216 43.877 43.0417 43.6151 43.0417 43.2659C43.0417 42.8512 43.8915 42.0436 47.0947 39.3371C49.3392 37.46 51.2785 35.9321 51.3875 35.9321C51.5182 35.9321 51.8015 36.0849 52.0194 36.3032ZM56.7262 39.0315C57.3145 39.6208 56.9005 40.1228 53.7845 42.742C49.9057 46.016 49.6224 46.2125 49.0123 45.9724C48.0535 45.6013 48.2278 44.9684 49.6442 43.7242C55.0701 39.0097 56.0507 38.3549 56.7262 39.0315Z" fill="#02001A"/>
<path d="M577.093 73.3056L569.193 64.2047L594.795 36.002H610.497L577.093 73.3056ZM564.492 86.0068V16H577.694V86.0068H564.492ZM596.495 86.0068L579.894 61.8045L588.495 52.7036L611.997 86.0068H596.495Z" fill="#02001A"/>
<path d="M538.902 59.7031C538.902 54.3026 539.936 49.8355 542.003 46.3018C544.136 42.7681 546.837 40.1345 550.104 38.401C553.437 36.6675 556.904 35.8008 560.505 35.8008V48.602C557.438 48.602 554.537 48.9687 551.804 49.7021C549.137 50.4355 546.97 51.6357 545.303 53.3025C543.636 54.9693 542.803 57.1029 542.803 59.7031H538.902ZM529.602 86.0057V36.0008H542.803V86.0057H529.602Z" fill="#02001A"/>
<path d="M510.474 86.0077L510.073 75.9067V60.7053C510.073 57.705 509.74 55.138 509.073 53.0045C508.473 50.871 507.473 49.2375 506.073 48.104C504.74 46.9039 502.906 46.3039 500.573 46.3039C498.439 46.3039 496.505 46.7706 494.772 47.704C493.038 48.6374 491.572 50.0709 490.372 52.0044L478.77 48.004C479.704 45.8705 481.071 43.8036 482.871 41.8034C484.671 39.7365 487.005 38.0697 489.872 36.8029C492.805 35.4695 496.372 34.8027 500.573 34.8027C505.64 34.8027 509.84 35.7695 513.174 37.703C516.574 39.6365 519.074 42.3701 520.675 45.9038C522.341 49.3708 523.141 53.5046 523.075 58.305L522.775 86.0077H510.474ZM496.472 87.2078C490.472 87.2078 485.804 85.8744 482.471 83.2074C479.204 80.5405 477.57 76.7735 477.57 71.9063C477.57 66.5725 479.337 62.5721 482.871 59.9052C486.471 57.1716 491.505 55.8048 497.972 55.8048H510.674V65.6057H502.573C498.239 65.6057 495.239 66.1391 493.572 67.2059C491.905 68.206 491.072 69.6395 491.072 71.5063C491.072 72.9731 491.738 74.1399 493.072 75.0066C494.405 75.8067 496.272 76.2068 498.672 76.2068C500.873 76.2068 502.806 75.7067 504.473 74.7066C506.206 73.6398 507.573 72.3064 508.573 70.7062C509.573 69.0394 510.073 67.3392 510.073 65.6057H513.274C513.274 72.4064 511.974 77.7069 509.373 81.5073C506.84 85.3076 502.539 87.2078 496.472 87.2078Z" fill="#02001A"/>
<path d="M415.141 86.0068V16H437.543C444.677 16 450.977 17.5001 456.445 20.5004C461.978 23.5007 466.279 27.6345 469.346 32.9016C472.48 38.1022 474.046 44.1361 474.046 51.0034C474.046 57.8041 472.48 63.838 469.346 69.1052C466.279 74.3724 461.978 78.5061 456.445 81.5064C450.977 84.5067 444.677 86.0068 437.543 86.0068H415.141ZM428.842 73.2056H437.543C440.743 73.2056 443.71 72.6388 446.444 71.5054C449.177 70.372 451.544 68.8051 453.544 66.805C455.611 64.8048 457.211 62.4712 458.345 59.8043C459.478 57.0707 460.045 54.1371 460.045 51.0034C460.045 47.8698 459.478 44.9695 458.345 42.3026C457.211 39.569 455.611 37.2021 453.544 35.2019C451.544 33.2017 449.177 31.6349 446.444 30.5014C443.71 29.368 440.743 28.8012 437.543 28.8012H428.842V73.2056Z" fill="#02001A"/>
<path d="M393.13 86.0077L392.73 75.9067V60.7053C392.73 57.705 392.396 55.138 391.73 53.0045C391.13 50.871 390.129 49.2375 388.729 48.104C387.396 46.9039 385.562 46.3039 383.229 46.3039C381.095 46.3039 379.162 46.7706 377.428 47.704C375.695 48.6374 374.228 50.0709 373.028 52.0044L361.427 48.004C362.36 45.8705 363.727 43.8036 365.527 41.8034C367.327 39.7365 369.661 38.0697 372.528 36.8029C375.461 35.4695 379.028 34.8027 383.229 34.8027C388.296 34.8027 392.496 35.7695 395.83 37.703C399.23 39.6365 401.731 42.3701 403.331 45.9038C404.998 49.3708 405.798 53.5046 405.731 58.305L405.431 86.0077H393.13ZM379.128 87.2078C373.128 87.2078 368.461 85.8744 365.127 83.2074C361.86 80.5405 360.227 76.7735 360.227 71.9063C360.227 66.5725 361.993 62.5721 365.527 59.9052C369.127 57.1716 374.161 55.8048 380.629 55.8048H393.33V65.6057H385.229C380.895 65.6057 377.895 66.1391 376.228 67.2059C374.561 68.206 373.728 69.6395 373.728 71.5063C373.728 72.9731 374.395 74.1399 375.728 75.0066C377.062 75.8067 378.928 76.2068 381.329 76.2068C383.529 76.2068 385.462 75.7067 387.129 74.7066C388.863 73.6398 390.229 72.3064 391.23 70.7062C392.23 69.0394 392.73 67.3392 392.73 65.6057H395.93C395.93 72.4064 394.63 77.7069 392.03 81.5073C389.496 85.3076 385.196 87.2078 379.128 87.2078Z" fill="#02001A"/>
<path d="M327.351 73.3056L319.45 64.2047L345.053 36.002H360.754L327.351 73.3056ZM314.75 86.0068V16H327.951V86.0068H314.75ZM346.753 86.0068L330.152 61.8045L338.752 52.7036L362.255 86.0068H346.753Z" fill="#02001A"/>
<path d="M293.911 86.0068L293.111 76.8059V36.002H306.312V86.0068H293.911ZM260.008 61.6044V36.002H273.209V61.6044H260.008ZM273.209 61.6044C273.209 64.9381 273.576 67.5717 274.309 69.5052C275.109 71.3721 276.209 72.7389 277.61 73.6056C279.076 74.4057 280.71 74.8057 282.51 74.8057C285.977 74.8724 288.611 73.839 290.411 71.7054C292.211 69.5052 293.111 66.3382 293.111 62.2045H297.611C297.611 67.5384 296.811 72.0721 295.211 75.8058C293.611 79.4729 291.411 82.3065 288.611 84.3067C285.81 86.2402 282.51 87.2069 278.71 87.2069C274.709 87.2069 271.309 86.4069 268.509 84.8067C265.708 83.2066 263.575 80.7396 262.108 77.406C260.708 74.0057 260.008 69.6386 260.008 64.3047V61.6044H273.209Z" fill="#02001A"/>
<path d="M235.309 59.7031C235.309 54.3026 236.342 49.8355 238.409 46.3018C240.543 42.7681 243.243 40.1345 246.51 38.401C249.843 36.6675 253.31 35.8008 256.911 35.8008V48.602C253.844 48.602 250.944 48.9687 248.21 49.7021C245.543 50.4355 243.376 51.6357 241.709 53.3025C240.043 54.9693 239.209 57.1029 239.209 59.7031H235.309ZM226.008 86.0057V36.0008H239.209V86.0057H226.008Z" fill="#02001A"/>
<path d="M202 86.0068V16H215.701V86.0068H202Z" fill="#02001A"/>
<defs>
<linearGradient id="paint0_linear_10166_68" x1="3.90212" y1="4.05948" x2="176.162" y2="48.1949" gradientUnits="userSpaceOnUse">
<stop stop-color="#EA3A77"/>
<stop offset="0.471154" stop-color="#D957C1"/>
</linearGradient>
</defs>
</svg>
